<svg width="300" height="300" viewBox="0 0 300 300" fill="none" xmlns="http://www.w3.org/2000/svg">
  <!-- Serpiente Ouroboros -->
  <path d="M150 25C94.7715 25 50 69.7715 50 125C50 180.228 94.7715 225 150 225C205.228 225 250 180.228 250 125C250 69.7715 205.228 25 150 25ZM150 15C210.751 15 260 64.2487 260 125C260 185.751 210.751 235 150 235C89.2487 235 40 185.751 40 125C40 64.2487 89.2487 15 150 15Z" fill="#D7D7D6"/>
  
  <!-- Patrón de escamas -->
  <path d="M150 30C97.5 30 55 72.5 55 125C55 177.5 97.5 220 150 220C202.5 220 245 177.5 245 125C245 72.5 202.5 30 150 30ZM150 20C208.5 20 255 66.5 255 125C255 183.5 208.5 230 150 230C91.5 230 45 183.5 45 125C45 66.5 91.5 20 150 20Z" stroke="#D7D7D6" stroke-width="0.5"/>
  
  <!-- Cabeza de serpiente -->
  <path d="M240 105C243 107 245 110 245 114C245 118 243 121 240 123C237 125 233 126 230 125C227 124 225 122 224 119C223 116 224 113 226 111C228 109 231 108 234 109C235 109 236 110 236 111C236 112 236 113 235 114C234 115 233 115 232 115C231 115 230 114 230 113C230 112 231 111 232 111" fill="#D7D7D6"/>
  <circle cx="235" cy="111" r="1.5" fill="#0E1920"/>
  
  <!-- Texto NATUS -->
  <text x="150" y="275" font-family="Morely, serif" font-size="48" text-anchor="middle" fill="#D7D7D6">NATUS</text>
</svg> 